# xmcd
#
# Track frame offsets:
#	150
#	22667
#	45105
#
# Disc length: 891 seconds
#
# Revision: 1
# Processed by: cddbd v1.4b42PL1 Copyright (c) Steve Scherf et al.
# Submitted via: CDmax 1.7.6
#
DISCID=0e037903
DTITLE=Cheri Knight - Black Eyed Susie
DYEAR=1900
DGENRE=
TTITLE0=Black Eyed Susie
TTITLE1=Dead Man's Curve
TTITLE2=The Northeast Kingdom
EXTD=
EXTT0=
EXTT1=
EXTT2=
PLAYORDER=
